<svg width="332" height="23" viewBox="0 0 332 23" fill="none" xmlns="http://www.w3.org/2000/svg">
<path d="M324.307 9.63021C325.083 9.92188 325.786 10.1927 326.406 10.4844C327.031 10.7708 327.703 11.1198 328.385 11.5469C329.073 11.974 329.651 12.4115 330.12 12.8854C330.594 13.3542 330.974 13.901 331.276 14.526C331.578 15.1458 331.734 15.8177 331.734 16.5313C331.734 17.5156 331.49 18.3958 331 19.1406C330.516 19.8854 329.859 20.4792 329.042 20.9063C328.219 21.3281 327.323 21.651 326.38 21.8646C325.422 22.0729 324.417 22.1823 323.365 22.1823C321.208 22.1823 319.427 21.7396 317.995 20.8438C316.583 19.9479 315.651 18.6562 315.229 16.9531L317.328 16.5313C317.979 19.4323 320.172 20.875 323.911 20.875C325.266 20.875 326.438 20.4948 327.38 19.75C328.339 19.0052 328.813 18.0313 328.813 16.8646C328.813 16.4844 328.75 16.1354 328.646 15.8281C328.536 15.526 328.323 15.2396 328.036 14.9635C327.745 14.6927 327.474 14.4635 327.214 14.2656C326.958 14.0677 326.547 13.8542 325.984 13.6146C325.422 13.3698 324.948 13.1719 324.583 13.0365C324.219 12.8958 323.656 12.6875 322.88 12.4271C322.818 12.3802 322.771 12.3646 322.729 12.349C322.682 12.3385 322.635 12.3229 322.573 12.3073C322.516 12.2917 322.469 12.2604 322.422 12.2448C322.318 12.1979 322.177 12.1563 321.995 12.0938C321.375 11.8646 320.885 11.6979 320.568 11.5781C320.25 11.4531 319.792 11.2708 319.214 11.0156C318.635 10.7552 318.177 10.526 317.859 10.3177C317.542 10.1042 317.161 9.82813 316.75 9.49479C316.339 9.16146 316.021 8.8125 315.807 8.46354C315.594 8.11458 315.411 7.70313 315.245 7.22917C315.073 6.76042 315 6.26042 315 5.71354C315 5.11979 315.151 4.51042 315.469 3.875C315.792 3.23437 316.229 2.63021 316.823 2.03646C317.417 1.44271 318.224 0.958333 319.276 0.578125C320.323 0.197916 321.495 0 322.786 0C326.547 0 329.281 1.33854 331.016 3.97917L329.073 4.70833C327.505 2.30729 325.437 1.125 322.849 1.125C322.12 1.125 321.448 1.21354 320.854 1.38021C320.26 1.54688 319.776 1.77604 319.427 2.03646C319.078 2.29167 318.755 2.59896 318.5 2.93229C318.24 3.26563 318.057 3.59896 317.979 3.93229C317.906 4.27083 317.844 4.58854 317.797 4.875C317.755 5.16667 317.781 5.42187 317.859 5.61979C317.922 5.88021 318.01 6.11979 318.146 6.34896C318.286 6.57813 318.406 6.77604 318.542 6.94271C318.682 7.10938 318.88 7.29167 319.167 7.47396C319.458 7.65625 319.682 7.80729 319.87 7.91667C320.052 8.02083 320.354 8.17188 320.797 8.33854C321.234 8.50521 321.573 8.64583 321.797 8.73438C322.026 8.82813 322.437 8.97917 323.016 9.17708C323.594 9.375 324.021 9.52604 324.307 9.63021Z" fill="black"/>
<path d="M308.141 0H311.031V21.6354H308.047V2.90104L298.938 19.4792L289.339 4.84896V21.6354H288V0H290.37L300.031 14.6927L308.141 0Z" fill="black"/>
<path d="M284.74 0L284.771 13.0208C284.771 15.4531 283.891 17.5156 282.109 19.25C280.328 20.9844 278.198 21.8333 275.703 21.8333C274.062 21.8333 272.495 21.4375 271.005 20.6615C269.51 19.8906 268.313 18.8073 267.396 17.4427C266.484 16.0729 266.031 14.599 266.031 13.0208L266 1.21875C266 1.10938 266 1.03646 266 0.958333C266 0.880208 266 0.807292 266 0.729167C266 0.656251 266 0.5625 266.016 0.473958C266.031 0.380209 266.031 0.302084 266.031 0.229167C266.031 0.151043 266.031 0.109376 266.031 0.0625V0H269.286L269.318 13.0208C269.318 15.026 269.906 16.6979 271.078 18.0625C272.25 19.4167 273.786 20.099 275.703 20.099C276.938 20.099 278.047 19.9167 279.036 19.5365C280.026 19.1615 280.828 18.6563 281.484 18.0208C282.141 17.3802 282.625 16.6354 282.958 15.7708C283.297 14.9063 283.464 13.9948 283.464 13.0208V1.27604L283.432 0H284.74Z" fill="black"/>
<path d="M261.74 1.33854H250.135V10.9531H257.073C257.026 11.0156 256.979 11.0937 256.906 11.1823C256.828 11.276 256.724 11.4271 256.583 11.625C256.448 11.8229 256.266 12.0521 256.068 12.2917H250.135V21.6979H247V0H263.448L261.74 1.33854Z" fill="black"/>
<path d="M244.01 8.29167C244.01 9.28125 243.87 10.224 243.583 11.0885C243.292 11.9531 242.87 12.7604 242.276 13.474C241.682 14.1875 240.953 14.7813 240.083 15.25L239.505 15.5573L242.943 20.724L243.49 21.6042H239.443L239.26 21.3281L236.677 17.2292C236.312 16.6667 235.792 16.3906 235.125 16.4063C234.896 16.4063 234.714 16.4063 234.547 16.4063H229.281V21.6042H226V0H234.547C236.187 0 237.724 0.364584 239.188 1.07813C240.63 1.79167 241.802 2.78125 242.688 4.04167C243.568 5.30208 244.01 6.63542 244.01 8.08333V8.29167ZM234.547 15.3438C236.432 15.3438 237.922 14.6771 239.036 13.3385C240.146 12 240.693 10.3281 240.693 8.32292V8.05208C240.693 6.72917 240.448 5.54167 239.979 4.49479C239.505 3.44792 238.792 2.60937 237.849 1.97396C236.906 1.34896 235.807 1.03125 234.547 1.03125H229.281V15.3281H234.547V15.3438Z" fill="black"/>
<path d="M222.896 20.8438L223.172 21.6042H219.583L219.432 21.2396L218.089 17.7448L217.755 16.9531H206.333L206 17.7448L204.599 21.2396L204.448 21.6042H203L203.307 20.8438L211.26 1.24479L211.75 0H214.667L214.823 0.364583L222.896 20.8438ZM206.896 15.6302H217.255L216.979 14.875L212.115 2.52083L206.943 15.4219L206.896 15.6302Z" fill="black"/>
<path d="M190.516 0C192.146 0 193.682 0.364584 195.141 1.07813C196.599 1.79687 197.771 2.78125 198.672 4.04167C199.568 5.30208 200.01 6.65625 200.01 8.11458V8.32813C200.01 9.42187 199.75 10.4687 199.219 11.4896C198.687 12.5052 197.984 13.3698 197.12 14.0833C196.25 14.7969 195.234 15.375 194.078 15.8021C192.922 16.2292 191.734 16.4427 190.516 16.4427H185.344V21.7292H182V0.03125H190.516V0ZM196.677 8.34375V8.06771C196.677 6.17188 196.115 4.57292 195.005 3.28125C193.896 1.98958 192.385 1.35417 190.5 1.35417H185.328V15.0417H190.5C192.385 15.0417 193.88 14.4063 195.005 13.1146C196.13 11.8385 196.677 10.2396 196.677 8.34375Z" fill="black"/>
<path d="M144 0H163.396L162.943 1.33854H155.349V21.6979H152.063V1.33854H144.474L144 0Z" fill="black"/>
<path d="M139.328 0H140.667V21.6354H138.656L123.339 5.21354V21.6354H122V0H123.432L139.328 17V0Z" fill="black"/>
<path d="M94.6615 20.9323C95.8177 20.75 96.8958 20.3438 97.9167 19.7188L98.8906 20.7188C97.0156 21.8594 94.9948 22.4219 92.8021 22.4219C90.7344 22.4219 88.8021 21.9219 86.9792 20.9323C85.1667 19.9479 83.724 18.5781 82.625 16.849C81.5469 15.1146 81 13.2448 81 11.224C81 9.21875 81.5469 7.33854 82.625 5.60417C83.7083 3.86979 85.151 2.50521 86.9792 1.5C88.7865 0.5 90.7344 0 92.8021 0C95.2708 0 97.5208 0.713542 99.526 2.15625L98.1875 3.55208C97.1562 2.71875 96.0156 2.125 94.75 1.76042C93.4896 1.39583 92.224 1.31771 90.9479 1.51563C89.2917 1.76042 87.8906 2.42708 86.7656 3.52083C85.6406 4.61458 84.8646 5.95313 84.4531 7.5625C84.0417 9.16146 83.9948 10.8438 84.349 12.6406C84.8802 15.3438 86.1094 17.5 88.0417 19.0938C89.9896 20.7188 92.1823 21.3281 94.6615 20.9323ZM107.089 20.599H118.938L117.568 22.3594H103.802V13.0781C103.802 13.0208 103.771 12.974 103.729 12.9427C103.682 12.9115 103.62 12.8958 103.557 12.9115C103.5 12.9271 103.318 12.974 102.995 13.0625C102.677 13.1562 102.495 13.2031 102.417 13.2135C102.344 13.2292 102.193 13.2604 101.932 13.3385C101.672 13.4115 101.49 13.4427 101.385 13.4583C101.276 13.474 101.109 13.4896 100.88 13.5365C100.656 13.5781 100.469 13.5938 100.302 13.6094C100.135 13.625 99.9531 13.625 99.7396 13.6406C99.526 13.6562 99.3021 13.6563 99.0573 13.6563C96.7448 13.6563 94.2812 13.1094 91.6458 12.0156L92.4688 10.7396C93.4427 11.151 94.3542 11.4531 95.2396 11.651C96.1042 11.849 96.849 11.9844 97.4583 12.0469C98.0677 12.1094 98.7656 12.0938 99.5417 11.9844C100.318 11.8802 100.927 11.7865 101.37 11.6823C101.807 11.5729 102.448 11.4062 103.302 11.1667C103.469 11.1042 103.589 11.0573 103.698 11.0417C103.74 11.0417 103.771 11.0573 103.786 11.0729C103.802 11.0729 103.818 11.0573 103.818 11.0417V0.635417L118.953 0.666667L117.583 2.00521H107.104L107.167 10.2813C107.167 10.3438 107.193 10.3906 107.24 10.4375C107.286 10.4792 107.349 10.4792 107.406 10.4635C109.307 9.93229 111.255 9.63021 113.25 9.55208L112.156 10.9844C111.531 11.026 110.984 11.0729 110.542 11.1354C110.099 11.1927 109.766 11.2552 109.536 11.3177C109.307 11.375 108.974 11.4844 108.521 11.6354C108.063 11.7865 107.667 11.9271 107.318 12.0469C107.208 12.0625 107.167 12.1198 107.167 12.1979L107.089 20.599Z" fill="black"/>
<path d="M70.3229 9.63021C71.099 9.92188 71.8021 10.1927 72.4219 10.4792C73.0469 10.7708 73.7188 11.1198 74.401 11.5469C75.0885 11.9688 75.6667 12.4115 76.1354 12.8802C76.6094 13.3542 76.9896 13.901 77.2917 14.5208C77.599 15.1458 77.75 15.8125 77.75 16.526C77.75 17.5156 77.5052 18.3958 77.0208 19.1406C76.5313 19.8854 75.8802 20.4792 75.0573 20.9063C74.2344 21.3281 73.3542 21.651 72.3958 21.8594C71.4375 22.0729 70.4323 22.1823 69.3802 22.1823C67.2396 22.1823 65.4583 21.7396 64.026 20.8438C62.6146 19.9479 61.6823 18.6563 61.2604 16.9531L63.3594 16.526C64.0104 19.4167 66.1875 20.875 69.9167 20.875C71.2708 20.875 72.4219 20.4948 73.3854 19.75C74.3438 19.0052 74.8125 18.0469 74.8125 16.8646C74.8125 16.4844 74.75 16.1354 74.6458 15.8281C74.5365 15.526 74.3281 15.2396 74.0365 14.9635C73.75 14.6927 73.474 14.4635 73.2135 14.2656C72.9583 14.0677 72.5469 13.8542 71.9844 13.6094C71.4219 13.3698 70.9479 13.1719 70.5833 13.0365C70.2187 12.8958 69.6563 12.6823 68.8802 12.4271C68.8177 12.3802 68.776 12.3646 68.7292 12.349C68.6823 12.3333 68.6354 12.3177 68.5781 12.3073C68.5156 12.2917 68.4687 12.2604 68.4219 12.2448C68.3177 12.1979 68.1823 12.151 68 12.0938C67.375 11.8646 66.8854 11.6979 66.5677 11.5781C66.25 11.4531 65.7917 11.2708 65.2135 11.0156C64.6354 10.7552 64.1771 10.526 63.8594 10.3125C63.5417 10.1042 63.1615 9.82813 62.75 9.49479C62.3385 9.16146 62.0208 8.8125 61.8073 8.46354C61.5937 8.10937 61.4115 7.70313 61.2448 7.22917C61.0781 6.76042 61 6.26042 61 5.71354C61 5.11979 61.151 4.51042 61.474 3.875C61.7917 3.23437 62.2344 2.625 62.8281 2.03646C63.4167 1.44271 64.224 0.958333 65.276 0.578125C66.3229 0.197917 67.4948 0 68.7865 0C72.5313 0 75.2708 1.32292 76.9896 3.97917L75.0417 4.70833C73.474 2.32292 71.4219 1.125 68.8333 1.125C68.1042 1.125 67.4375 1.21354 66.8438 1.38021C66.25 1.54688 65.7604 1.77604 65.4115 2.03646C65.0625 2.29167 64.7448 2.59896 64.4844 2.93229C64.224 3.26563 64.0417 3.59896 63.9688 3.93229C63.8906 4.26563 63.8281 4.58854 63.7865 4.875C63.7396 5.16667 63.7708 5.42188 63.8438 5.61979C63.9063 5.88021 63.9948 6.11979 64.1354 6.34896C64.2708 6.57813 64.3906 6.77604 64.5313 6.94271C64.6667 7.10938 64.8646 7.29167 65.151 7.47396C65.4427 7.65625 65.6719 7.80729 65.8542 7.91667C66.0365 8.02083 66.3385 8.17188 66.7813 8.33854C67.224 8.50521 67.5573 8.64583 67.7865 8.73438C68.0104 8.82813 68.4219 8.97917 69 9.17708C69.6094 9.375 70.0365 9.52604 70.3229 9.63021Z" fill="black"/>
<path d="M46.2552 13.6563V20.2344H57.9531L56.8854 21.6354H43V0H58.2292L56.8854 1.33854H46.2552V8.59896H57.8021L56.7344 9.9375H46.2552V11.5781H46.224V13.6563H46.2552Z" fill="black"/>
<path d="M39.9792 8.29167C39.9792 9.28125 39.8438 10.224 39.5573 11.0885C39.2656 11.9531 38.8385 12.7604 38.2448 13.474C37.651 14.1875 36.9219 14.7813 36.0573 15.25L35.4792 15.5573L38.9167 20.724L39.4635 21.6042H35.4167L35.2344 21.3281L32.651 17.2292C32.2812 16.6667 31.7656 16.3906 31.099 16.4063C30.8698 16.4063 30.6875 16.4063 30.5208 16.4063H25.2552V21.6042H22V0H30.5469C32.1927 0 33.7292 0.364584 35.1875 1.07813C36.6354 1.79167 37.8073 2.78125 38.6875 4.04167C39.5677 5.30208 40.0104 6.63542 40.0104 8.08333V8.29167H39.9792ZM30.5365 15.3438C32.4219 15.3438 33.9115 14.6771 35.0208 13.3385C36.1302 12 36.6823 10.3281 36.6823 8.32292V8.05208C36.6823 6.72917 36.4375 5.54167 35.9635 4.49479C35.4948 3.44792 34.776 2.60937 33.8333 1.97396C32.8906 1.34896 31.7969 1.03125 30.5365 1.03125H25.2708V15.3281H30.5365V15.3438Z" fill="black"/>
<path d="M13.6927 20.9323C14.849 20.75 15.9271 20.3438 16.9167 19.7188L17.8906 20.7188C16.0156 21.875 13.9948 22.4531 11.8021 22.4531C9.73438 22.4531 7.80208 21.9531 5.97917 20.9479C4.16667 19.9479 2.72396 18.5781 1.625 16.849C0.546875 15.1146 0 13.2448 0 11.224C0 9.21875 0.546875 7.33854 1.625 5.60417C2.70833 3.86979 4.15104 2.50521 5.97917 1.5C7.78646 0.5 9.73438 0 11.8021 0C14.2708 0 16.5208 0.729167 18.526 2.1875L17.1875 3.55208C16.1563 2.71875 15.0156 2.125 13.75 1.76042C12.4896 1.39583 11.224 1.31771 9.94792 1.51563C8.30729 1.77604 6.92187 2.45833 5.78125 3.53646C4.64062 4.61458 3.86458 5.95313 3.45313 7.5625C3.04167 9.17708 2.99479 10.8438 3.34375 12.6406C3.88021 15.3438 5.10938 17.5 7.04167 19.0938C8.98958 20.7188 11.2135 21.3281 13.6927 20.9323Z" fill="black"/>
</svg>
